<svg xmlns="http://www.w3.org/2000/svg" xmlns:xlink="http://www.w3.org/1999/xlink" width="1920" zoomAndPan="magnify" viewBox="0 0 1440 809.999993" height="1080" preserveAspectRatio="xMidYMid meet" version="1.0"><defs><clipPath id="0131c766a8"><path d="M 413.355469 98.355469 L 992.355469 98.355469 L 992.355469 677.355469 L 413.355469 677.355469 Z M 413.355469 98.355469 " clip-rule="nonzero"/></clipPath></defs><path fill="#b384f9" d="M 670.980469 402.65625 L 661.089844 402.65625 C 648.304688 402.65625 635.882812 398.195312 626.113281 389.992188 C 613.691406 379.621094 606.574219 364.300781 606.574219 348.140625 L 606.574219 301.34375 C 606.574219 298.933594 608.503906 297.003906 610.917969 297.003906 C 613.328125 297.003906 615.257812 298.933594 615.257812 301.34375 L 615.257812 348.140625 C 615.257812 361.769531 621.289062 374.554688 631.78125 383.359375 C 639.984375 390.234375 650.476562 393.972656 661.210938 393.972656 L 671.101562 393.972656 C 681.835938 393.972656 692.328125 390.234375 700.53125 383.238281 C 711.023438 374.433594 716.933594 361.648438 716.933594 348.019531 L 716.933594 301.222656 C 716.933594 298.8125 718.863281 296.882812 721.273438 296.882812 C 723.6875 296.882812 725.617188 298.8125 725.617188 301.222656 L 725.617188 348.019531 C 725.617188 364.183594 718.5 379.5 706.078125 389.871094 C 696.1875 398.195312 683.765625 402.65625 670.980469 402.65625 Z M 670.980469 402.65625 " fill-opacity="1" fill-rule="nonzero"/><path fill="#b384f9" d="M 721.273438 305.566406 C 720.914062 305.566406 720.550781 305.566406 720.070312 305.445312 C 690.035156 297.121094 672.546875 281.441406 663.140625 269.742188 C 658.917969 264.4375 655.902344 259.492188 653.734375 255.511719 C 640.828125 281.203125 614.898438 303.515625 613.691406 304.601562 C 611.882812 306.167969 609.105469 305.925781 607.539062 304.117188 C 605.972656 302.308594 606.210938 299.535156 608.023438 297.96875 C 608.382812 297.726562 640.226562 270.226562 649.632812 242.96875 C 650.234375 241.160156 651.925781 239.953125 653.855469 240.074219 C 655.785156 240.074219 657.351562 241.402344 657.953125 243.210938 C 657.953125 243.332031 660.847656 253.101562 670.136719 264.558594 C 678.699219 275.171875 694.742188 289.28125 722.359375 297.003906 C 724.652344 297.605469 725.980469 300.015625 725.375 302.308594 C 724.894531 304.359375 723.203125 305.566406 721.273438 305.566406 Z M 721.273438 305.566406 " fill-opacity="1" fill-rule="nonzero"/><path fill="#b384f9" d="M 785.800781 455.363281 C 784.234375 455.363281 782.785156 454.519531 781.941406 453.070312 C 778.082031 445.59375 772.894531 439.082031 766.625 433.773438 C 766.625 433.773438 766.503906 433.773438 766.503906 433.652344 C 766.503906 433.652344 766.382812 433.53125 766.382812 433.53125 C 763.367188 430.878906 760.113281 428.589844 756.734375 426.417969 C 753.238281 424.246094 749.738281 422.4375 746 420.867188 C 741.296875 418.820312 736.351562 417.371094 731.285156 416.285156 C 726.097656 415.199219 720.792969 414.71875 715.484375 414.71875 L 703.183594 414.71875 C 700.769531 414.71875 698.839844 412.789062 698.839844 410.375 L 698.839844 386.617188 C 698.839844 384.203125 700.769531 382.273438 703.183594 382.273438 C 705.59375 382.273438 707.523438 384.203125 707.523438 386.617188 L 707.523438 406.035156 L 715.484375 406.035156 C 721.394531 406.035156 727.304688 406.636719 732.972656 407.84375 C 738.644531 409.050781 744.070312 410.738281 749.257812 412.910156 C 753.355469 414.597656 757.335938 416.648438 761.195312 419.058594 C 764.9375 421.351562 768.433594 423.882812 771.8125 426.777344 C 771.929688 426.777344 771.929688 426.898438 772.050781 427.019531 C 772.171875 427.140625 772.171875 427.140625 772.292969 427.261719 C 779.410156 433.292969 785.199219 440.648438 789.539062 449.089844 C 790.625 451.261719 789.78125 453.796875 787.730469 455 C 787.128906 455.242188 786.523438 455.363281 785.800781 455.363281 Z M 766.382812 433.414062 Z M 766.382812 433.414062 " fill-opacity="1" fill-rule="nonzero"/><path fill="#b384f9" d="M 798.34375 573.078125 L 533.726562 573.078125 C 531.3125 573.078125 529.382812 571.148438 529.382812 568.738281 L 529.382812 493.355469 C 529.382812 480.328125 532.15625 467.785156 537.707031 456.207031 C 543.011719 445.113281 550.730469 434.980469 560.140625 427.019531 C 563.515625 424.125 567.136719 421.472656 570.875 419.179688 C 574.734375 416.769531 578.714844 414.71875 582.8125 413.027344 C 586.792969 411.339844 591.015625 409.894531 595.359375 408.808594 C 602.351562 407.121094 609.46875 406.15625 616.707031 406.15625 L 624.667969 406.15625 L 624.667969 386.617188 C 624.667969 384.203125 626.597656 382.273438 629.007812 382.273438 C 631.421875 382.273438 633.351562 384.203125 633.351562 386.617188 L 633.351562 410.375 C 633.351562 412.789062 631.421875 414.71875 629.007812 414.71875 L 616.707031 414.71875 C 610.191406 414.71875 603.800781 415.5625 597.527344 417.128906 C 593.667969 418.09375 589.929688 419.300781 586.3125 420.867188 C 582.574219 422.4375 578.953125 424.246094 575.578125 426.417969 C 572.199219 428.46875 568.945312 430.878906 565.929688 433.53125 C 557.484375 440.769531 550.492188 449.816406 545.785156 459.824219 C 540.84375 470.320312 538.308594 481.535156 538.308594 493.355469 L 538.308594 564.394531 L 798.585938 564.394531 C 801 564.394531 802.929688 566.324219 802.929688 568.738281 C 802.929688 571.148438 800.757812 573.078125 798.34375 573.078125 Z M 798.34375 573.078125 " fill-opacity="1" fill-rule="nonzero"/><path fill="#b384f9" d="M 769.277344 434.617188 C 767.46875 434.617188 765.78125 433.414062 765.175781 431.84375 C 762.28125 424.847656 759.75 416.648438 757.820312 407.601562 C 754.683594 392.644531 752.875 375.15625 752.632812 355.738281 C 752.511719 345.246094 752.753906 333.910156 753.597656 322.089844 C 753.597656 322.089844 753.597656 321.96875 753.597656 321.96875 C 753.597656 321.484375 757.941406 269.984375 729.234375 237.660156 C 714.398438 221.015625 693.171875 212.09375 666.15625 211.367188 C 639.140625 212.214844 617.910156 221.015625 603.078125 237.78125 C 574.371094 270.105469 578.59375 321.484375 578.714844 321.96875 C 578.714844 321.96875 578.714844 322.089844 578.714844 322.089844 C 579.4375 333.910156 579.800781 345.125 579.679688 355.738281 C 579.4375 375.15625 577.628906 392.644531 574.492188 407.601562 C 572.5625 416.769531 570.03125 425.089844 567.015625 432.085938 C 566.050781 434.257812 563.515625 435.34375 561.347656 434.378906 C 559.175781 433.414062 558.089844 430.878906 559.054688 428.707031 C 561.828125 422.195312 564.121094 414.476562 566.050781 405.792969 C 569.066406 391.441406 570.753906 374.554688 570.996094 355.617188 C 571.113281 345.367188 570.875 334.269531 570.148438 322.691406 C 569.910156 319.675781 565.6875 266.847656 596.683594 231.992188 C 613.207031 213.417969 636.605469 203.527344 666.15625 202.683594 C 666.277344 202.683594 666.277344 202.683594 666.398438 202.683594 C 695.945312 203.527344 719.34375 213.417969 735.867188 231.992188 C 766.867188 266.847656 762.644531 319.675781 762.402344 322.691406 C 761.679688 334.269531 761.4375 345.246094 761.558594 355.617188 C 761.800781 374.554688 763.488281 391.441406 766.503906 405.792969 C 768.3125 414.476562 770.726562 422.195312 773.5 428.707031 C 773.742188 429.191406 773.859375 429.792969 773.859375 430.398438 C 773.621094 432.566406 771.570312 434.617188 769.277344 434.617188 Z M 769.277344 434.617188 " fill-opacity="1" fill-rule="nonzero"/><path fill="#b384f9" d="M 676.890625 441.132812 L 655.300781 441.132812 C 638.414062 441.132812 624.667969 427.382812 624.667969 410.496094 C 624.667969 408.085938 626.597656 406.15625 629.007812 406.15625 C 631.421875 406.15625 633.351562 408.085938 633.351562 410.496094 C 633.351562 422.679688 643.238281 432.449219 655.300781 432.449219 L 676.890625 432.449219 C 689.070312 432.449219 698.839844 422.558594 698.839844 410.496094 C 698.839844 408.085938 700.769531 406.15625 703.183594 406.15625 C 705.597656 406.15625 707.527344 408.085938 707.527344 410.496094 C 707.527344 427.382812 693.777344 441.132812 676.890625 441.132812 Z M 676.890625 441.132812 " fill-opacity="1" fill-rule="nonzero"/><path fill="#b384f9" d="M 687.261719 462.601562 L 644.808594 462.601562 C 621.289062 462.601562 600.0625 443.0625 592.101562 413.992188 C 591.5 411.703125 592.824219 409.289062 595.117188 408.6875 C 597.410156 408.085938 599.820312 409.410156 600.421875 411.703125 C 607.296875 436.910156 625.148438 453.917969 644.6875 453.917969 L 687.140625 453.917969 C 706.679688 453.917969 724.53125 437.03125 731.40625 411.703125 C 732.007812 409.410156 734.421875 408.085938 736.714844 408.6875 C 739.003906 409.289062 740.332031 411.703125 739.726562 413.992188 C 731.890625 443.183594 710.78125 462.601562 687.261719 462.601562 Z M 687.261719 462.601562 " fill-opacity="1" fill-rule="nonzero"/><path fill="#b384f9" d="M 572.683594 573.078125 C 570.390625 573.078125 568.460938 571.269531 568.339844 568.859375 C 567.617188 548.234375 553.023438 530.503906 532.882812 526.042969 C 530.589844 525.558594 529.023438 523.144531 529.625 520.855469 C 530.109375 518.5625 532.519531 516.996094 534.8125 517.597656 C 558.8125 523.027344 576.179688 544.011719 577.023438 568.617188 C 577.144531 571.027344 575.214844 573.078125 572.804688 573.078125 C 572.804688 573.078125 572.683594 573.078125 572.683594 573.078125 Z M 572.683594 573.078125 " fill-opacity="1" fill-rule="nonzero"/><path fill="#b384f9" d="M 666.035156 573.078125 C 663.625 573.078125 661.695312 571.148438 661.695312 568.738281 L 661.695312 458.257812 C 661.695312 455.847656 663.625 453.917969 666.035156 453.917969 C 668.449219 453.917969 670.378906 455.847656 670.378906 458.257812 L 670.378906 568.738281 C 670.378906 571.148438 668.449219 573.078125 666.035156 573.078125 Z M 666.035156 573.078125 " fill-opacity="1" fill-rule="nonzero"/><path fill="#b384f9" d="M 861.785156 573.078125 L 732.25 573.078125 C 725.738281 573.078125 720.429688 567.773438 720.429688 561.257812 L 720.429688 547.871094 C 720.429688 541.359375 725.738281 536.050781 732.25 536.050781 L 861.664062 536.050781 C 868.179688 536.050781 873.484375 541.359375 873.484375 547.871094 L 873.484375 561.257812 C 873.484375 567.773438 868.300781 573.078125 861.785156 573.078125 Z M 732.25 544.855469 C 730.5625 544.855469 729.113281 546.183594 729.113281 547.992188 L 729.113281 561.378906 C 729.113281 563.070312 730.441406 564.515625 732.25 564.515625 L 861.664062 564.515625 C 863.355469 564.515625 864.800781 563.1875 864.800781 561.378906 L 864.800781 547.992188 C 864.800781 546.304688 863.476562 544.855469 861.664062 544.855469 Z M 732.25 544.855469 " fill-opacity="1" fill-rule="nonzero"/><path fill="#b384f9" d="M 859.734375 544.855469 L 734.300781 544.855469 C 732.972656 544.855469 731.769531 544.253906 731.042969 543.289062 C 730.199219 542.324219 729.839844 540.996094 730.078125 539.789062 L 742.863281 463.082031 C 744.433594 453.554688 752.632812 446.679688 762.160156 446.679688 L 856.601562 446.679688 C 862.390625 446.679688 867.816406 449.210938 871.554688 453.675781 C 875.292969 458.136719 876.863281 463.925781 875.898438 469.59375 L 863.957031 541.238281 C 863.59375 543.289062 861.785156 544.855469 859.734375 544.855469 Z M 739.488281 536.171875 L 855.996094 536.171875 L 867.335938 468.148438 C 867.816406 465.011719 866.972656 461.753906 864.921875 459.34375 C 862.871094 456.929688 859.855469 455.484375 856.601562 455.484375 L 762.160156 455.484375 C 756.855469 455.484375 752.273438 459.34375 751.425781 464.652344 Z M 739.488281 536.171875 " fill-opacity="1" fill-rule="nonzero"/><path fill="#b384f9" d="M 786.644531 517.476562 C 785.679688 517.476562 784.835938 517.238281 783.992188 516.632812 L 760.835938 499.265625 C 759.75 498.421875 759.148438 497.214844 759.148438 495.769531 C 759.148438 494.320312 759.75 493.113281 760.835938 492.269531 L 783.992188 474.902344 C 785.921875 473.453125 788.574219 473.816406 790.023438 475.746094 C 791.46875 477.675781 791.109375 480.328125 789.179688 481.777344 L 770.605469 495.648438 L 789.179688 509.515625 C 791.109375 510.964844 791.46875 513.617188 790.023438 515.546875 C 789.179688 516.875 787.972656 517.476562 786.644531 517.476562 Z M 786.644531 517.476562 " fill-opacity="1" fill-rule="nonzero"/><path fill="#b384f9" d="M 819.574219 517.476562 C 818.246094 517.476562 816.917969 516.875 816.074219 515.789062 C 814.628906 513.859375 814.988281 511.207031 816.917969 509.757812 L 835.492188 495.886719 L 817.039062 481.898438 C 815.109375 480.449219 814.75 477.796875 816.195312 475.867188 C 817.644531 473.9375 820.296875 473.574219 822.226562 475.023438 L 845.382812 492.390625 C 846.46875 493.234375 847.070312 494.441406 847.070312 495.886719 C 847.070312 497.335938 846.46875 498.542969 845.382812 499.386719 L 822.226562 516.632812 C 821.503906 517.238281 820.539062 517.476562 819.574219 517.476562 Z M 819.574219 517.476562 " fill-opacity="1" fill-rule="nonzero"/><path fill="#b384f9" d="M 799.792969 524.113281 C 799.550781 524.113281 799.429688 524.113281 799.1875 524.113281 C 796.777344 523.75 795.210938 521.578125 795.449219 519.167969 L 801.964844 471.285156 C 802.324219 468.871094 804.496094 467.183594 806.910156 467.546875 C 809.320312 467.90625 810.886719 470.078125 810.648438 472.488281 L 804.132812 520.371094 C 803.894531 522.542969 801.964844 524.113281 799.792969 524.113281 Z M 799.792969 524.113281 " fill-opacity="1" fill-rule="nonzero"/><g clip-path="url(#0131c766a8)"><path fill="#b384f9" d="M 969.492188 275.171875 C 954.898438 240.675781 934.03125 209.800781 907.496094 183.144531 C 880.964844 156.613281 849.964844 135.746094 815.472656 121.152344 C 779.769531 105.957031 741.898438 98.355469 702.820312 98.355469 C 663.742188 98.355469 625.871094 105.957031 590.171875 121.152344 C 555.675781 135.746094 524.800781 156.613281 498.144531 183.144531 C 471.613281 209.679688 450.746094 240.675781 436.152344 275.171875 C 420.957031 310.871094 413.355469 348.742188 413.355469 387.820312 C 413.355469 426.898438 420.957031 464.769531 436.152344 500.472656 C 450.746094 534.964844 471.613281 565.84375 498.144531 592.496094 C 524.679688 619.03125 555.675781 639.898438 590.171875 654.492188 C 625.871094 669.566406 663.742188 677.285156 702.820312 677.285156 C 741.898438 677.285156 779.769531 669.6875 815.472656 654.492188 C 849.964844 639.898438 880.84375 619.03125 907.496094 592.496094 C 934.03125 565.964844 954.898438 534.964844 969.492188 500.472656 C 984.566406 464.769531 992.285156 426.898438 992.285156 387.820312 C 992.285156 348.742188 984.6875 310.871094 969.492188 275.171875 Z M 983.121094 387.820312 C 983.121094 542.445312 857.324219 668.121094 702.820312 668.121094 C 548.199219 668.121094 422.523438 542.445312 422.523438 387.820312 C 422.523438 233.199219 548.199219 107.523438 702.820312 107.523438 C 857.445312 107.523438 983.121094 233.199219 983.121094 387.820312 Z M 983.121094 387.820312 " fill-opacity="1" fill-rule="nonzero"/></g></svg>